<svg xmlns="http://www.w3.org/2000/svg" xmlns:xlink="http://www.w3.org/1999/xlink">rn    <title>icon_充提记录</title>rn    <defs>rn        <rect id="icon-icon_充提记录_path-1" x="0" y="0" width="24" height="24" />rn        <linearGradient x1="92.3198973%" y1="100%" x2="7.68010266%" y2="1.41638472e-14%" id="icon-icon_充提记录_linearGradient-3">rn            <stop stop-color="#9EFBD3" offset="0%" />rn            <stop stop-color="#57E9F2" offset="47.8728925%" />rn            <stop stop-color="#45D4FB" offset="100%" />rn        </linearGradient>rn        <path d="M12.7620108,6.32677513 C12.9989502,6.32012557 13.2226011,6.2158255 13.3799837,6.03858212 C13.5373623,5.86135064 13.614458,5.62693552 13.593001,5.39088759 C13.5947535,5.1561417 13.5030875,4.93033363 13.3382064,4.7632321 C13.1733167,4.59612187 12.9487536,4.50142308 12.7139933,4.5 L9.43800603,4.5 C8.94102909,4.52655759 8.55403249,4.9413276 8.56200124,5.43887581 C8.57429127,5.91944651 8.95758181,6.3079519 9.43800603,6.32677513 L12.7619962,6.32677513 L12.7620108,6.32677513 Z M15.6689897,17.6713317 L15.1620079,17.6713317 C14.9760022,17.6713317 14.7929995,17.6233435 14.6549968,17.6233435 L14.561994,17.6233435 C14.4190871,17.6136506 14.2784831,17.5822966 14.1449974,17.5303553 C14.0549975,17.5303553 14.0070093,17.4823524 13.9139918,17.4823524 C13.8094222,17.44352 13.7021352,17.41244 13.593001,17.3893642 C13.4166514,17.3482011 13.2462763,17.2846999 13.0860045,17.2003996 C12.6689933,17.4343642 12.3929878,17.716317 12.3929878,18.0462873 L12.3929878,18.2322636 C12.3971542,18.2674266 12.4130061,18.3001724 12.4380024,18.3252518 C12.437757,18.3380553 12.4427361,18.3504066 12.4517925,18.3594603 C12.460849,18.368514 12.4732019,18.3734893 12.4860053,18.37324 C12.5020297,18.4152375 12.5345533,18.448841 12.5760052,18.4662282 L12.6239934,18.514231 C12.6403139,18.5560393 12.6727402,18.5895422 12.7139933,18.6072192 L12.7619962,18.6552074 C13.0390882,18.8659077 13.3521832,19.0244679 13.6860038,19.1231512 C14.3276896,19.32248 14.9971751,19.4176764 15.6689897,19.4051186 C17.4689875,19.4051186 18.8999916,18.7961838 18.8999916,17.9982844 C18.8999916,17.7643198 18.6239861,17.4823671 18.2069895,17.2483879 C17.3952852,17.5483434 16.5341148,17.6918536 15.6690043,17.6713317 L15.6689897,17.6713317 Z M12.2549997,16.6874559 C11.8027553,16.3591865 11.5288993,15.839263 11.5139947,15.2806363 C11.5139947,13.921805 13.2239927,12.9349263 15.6689897,12.9349263 C16.1496382,12.9311098 16.629332,12.9783721 17.0999938,13.0759173 L17.0999938,6.42275157 C17.1103376,6.29601723 17.0950329,6.16849809 17.0549939,6.04781062 C17.006991,5.90681959 17.006991,5.81383141 16.961991,5.71784032 C16.7280118,5.24576569 16.2407029,4.95295843 15.7139896,4.96794376 L14.4239912,4.96794376 C14.4635861,5.12159641 14.4787716,5.28051989 14.4689911,5.43889046 C14.4848261,6.40807385 13.7301541,7.21569982 12.7620108,7.26565094 L9.43799138,7.26565094 C8.46261171,7.23144688 7.69897494,6.41422618 7.73101103,5.43887581 C7.73101103,5.29789942 7.77601097,5.10892015 7.77601099,4.96792912 L6.48601254,4.96792912 C5.70000764,4.96794376 5.10000837,5.57687858 5.10000837,6.89070999 L5.10000837,18.514231 C5.10000837,18.7482103 5.51400201,19.2641422 6.11400128,19.4501186 C6.23383495,19.4895833 6.36008611,19.5058742 6.48601254,19.4981215 L12.2549997,19.4981215 C11.8016752,19.1707822 11.5275165,18.6502785 11.5139947,18.0912872 C11.548361,17.538767 11.8181988,17.0275656 12.2549997,16.6874706 L12.2549997,16.6874559 Z M7.63800822,8.9994379 L14.561994,8.9994379 C14.9505287,8.9994379 15.265499,9.31436428 15.265499,9.70285502 C15.265499,10.0913311 14.9505287,10.4062575 14.561994,10.4062575 L7.63800822,10.4062575 C7.24947353,10.4062575 6.93450321,10.0913165 6.93450321,9.70284037 C6.93450321,9.31436428 7.24947353,8.99942325 7.63800822,8.99942325 L7.63800822,8.9994379 Z M11.0069983,13.405873 L7.63800822,13.405873 C7.24947353,13.405873 6.93450321,13.090932 6.93450321,12.7024559 C6.93450321,12.3139798 7.24947353,11.9990388 7.63800822,11.9990388 L11.0069983,11.9990388 C11.395533,11.9990388 11.7105033,12.3139798 11.7105033,12.7024559 C11.7105033,13.090932 11.395533,13.405873 11.0069983,13.405873 Z M16.4069917,13.921805 C16.389941,13.919095 16.3732711,13.9142903 16.355151,13.9146368 C16.1310009,13.919095 15.8536184,13.9135726 15.6239897,13.921805 C13.8239919,13.921805 12.3929878,14.5307398 12.3929878,15.3256363 C12.3859743,15.407259 12.4015471,15.4892384 12.4380024,15.5626038 C12.4860053,15.6555919 12.5310052,15.7005919 12.5759905,15.7965683 L12.7619962,15.9825447 C12.854999,16.0305475 12.9449989,16.1235357 13.0380017,16.1715239 C13.6529608,16.4901796 14.331692,16.6665044 15.0239905,16.6874559 L16.1310008,16.6874559 C17.6549931,16.5914648 18.8069888,15.9825447 18.8069888,15.2806363 C18.8999916,14.7647044 18.1619896,14.2967606 17.0999938,14.0597931 C16.8730898,14.0035725 16.6463908,13.9587043 16.4069917,13.921805 L16.4069917,13.921805 Z" id="icon-icon_充提记录_path-4" />rn        <filter x="-50.7%" y="-33.3%" width="201.4%" height="193.3%" filterUnits="objectBoundingBox" id="icon-icon_充提记录_filter-5">rn            <feOffset dx="0" dy="2" in="SourceAlpha" result="shadowOffsetOuter1"></feOffset>rn            <feGaussianBlur stdDeviation="2" in="shadowOffsetOuter1" result="shadowBlurOuter1"></feGaussianBlur>rn            <feColorMatrix values="0 0 0 0 0.321568627   0 0 0 0 1   0 0 0 0 0.869705011  0 0 0 0.2 0" type="matrix" in="shadowBlurOuter1"></feColorMatrix>rn        </filter>rn    </defs>rn    <g id="icon-icon_充提记录_控件" stroke="none" stroke-width="1" fill="none" fill-rule="evenodd">rn        <g id="icon-icon_充提记录_icon_充提记录">rn            <mask id="icon-icon_充提记录_mask-2" fill="white">rn                <use xlink:href="#icon-icon_充提记录_path-1" />rn            </mask>rn            <g id="icon-icon_充提记录_蒙版"></g>rn            <g id="icon-icon_充提记录_形状" fill-rule="nonzero" mask="url(#icon-icon_充提记录_mask-2)">rn                <use fill="black" fill-opacity="1" filter="url(#icon-icon_充提记录_filter-5)" xlink:href="#icon-icon_充提记录_path-4" />rn                <use fill="url(#icon-icon_充提记录_linearGradient-3)" xlink:href="#icon-icon_充提记录_path-4" />rn            </g>rn        </g>rn    </g>rn</svg>