<svg xmlns="http://www.w3.org/2000/svg" xmlns:xlink="http://www.w3.org/1999/xlink">rn    <title>icon_购买货币</title>rn    <defs>rn        <rect id="icon-icon_购买货币_path-1" x="0" y="0" width="24" height="24" />rn        <linearGradient x1="50%" y1="0%" x2="50%" y2="99.8169799%" id="icon-icon_购买货币_linearGradient-3">rn            <stop stop-color="#00CCCC" offset="0%" />rn            <stop stop-color="#00FFD4" offset="100%" />rn        </linearGradient>rn        <path d="M19.2069733,14.7586904 L19.2069733,15.8601455 C19.2029676,17.871059 16.0704926,19.5 12.2089761,19.5 C8.34545683,19.5 5.21498473,17.869038 5.21097901,15.8601455 L5.21097901,14.7586904 C6.51684453,16.2057397 9.13057843,17.1738076 12.2089761,17.1738076 C15.2873739,17.1738076 17.8991049,16.2057397 19.2069733,14.7586904 Z M5.21097901,11.5250606 C5.54545683,11.894907 5.96806055,12.2324171 6.45876155,12.5315279 L6.51484167,12.5618432 C6.69710204,12.6709782 6.89137958,12.7760711 7.0916657,12.87308 C7.19180876,12.9215845 7.29796041,12.9660469 7.40210919,13.0125303 C7.55032092,13.0772029 7.70053552,13.1398545 7.85675869,13.198464 C7.9649132,13.2388844 8.0730677,13.2793048 8.18522793,13.3177041 C8.39152264,13.3884398 8.60582879,13.4510914 8.82414067,13.5097009 C8.90024939,13.5299111 8.97435526,13.5521423 9.05246685,13.5723525 C9.32285311,13.6390461 9.60525655,13.6976556 9.8916657,13.7461601 C9.99381162,13.7643492 10.0959575,13.7784964 10.1981035,13.7926435 C10.4264296,13.8249798 10.6567587,13.8532741 10.8930963,13.8755053 C10.9932394,13.8835893 11.0933824,13.8936944 11.1955284,13.9017785 C11.5280033,13.9260307 11.8664869,13.9421989 12.210979,13.9421989 C12.557474,13.9421989 12.8939547,13.9260307 13.2264296,13.9017785 C13.3285756,13.8957154 13.4287186,13.8856103 13.5288617,13.8755053 C13.7651993,13.8532741 13.9955284,13.8270008 14.2238545,13.7926435 C14.3260005,13.7764753 14.4281464,13.7643492 14.5282894,13.7461601 C14.8167015,13.6976556 15.1011078,13.6390461 15.3734969,13.5723525 C15.4496056,13.5541633 15.5197058,13.5319321 15.5938116,13.5117219 C15.8121235,13.4531124 16.0264296,13.3904608 16.2347272,13.3197251 C16.3468874,13.2813258 16.455042,13.2409054 16.5631965,13.200485 C16.7194196,13.1418755 16.8696342,13.0792239 17.017846,13.0145513 C17.1219947,12.9680679 17.2281464,12.9236055 17.3282894,12.8751011 C17.5305784,12.7760711 17.7228531,12.6729992 17.9051135,12.5638642 C17.9211364,12.5537591 17.941165,12.543654 17.9591907,12.5335489 L18.1994599,12.3816637 C18.5896469,12.1230014 18.927908,11.8369712 19.2049704,11.5270816 L19.2049704,12.6285368 C19.2049704,13.0670978 19.0467444,13.4854487 18.7723524,13.8755053 C18.764341,13.8856103 18.7563295,13.8977365 18.7483181,13.9098626 C18.6882322,13.9927243 18.6221378,14.0735651 18.5500348,14.1544058 L18.5219947,14.1847211 C18.2195627,14.5161681 17.8270019,14.8172999 17.3563295,15.0840744 L17.2601922,15.1386419 C17.1660577,15.1891673 17.0679175,15.2376718 16.9697773,15.2861762 L16.8095484,15.3609539 C16.7174168,15.4033953 16.6232823,15.4438157 16.5251421,15.4842361 C16.4570448,15.5125303 16.3889475,15.5388036 16.3188474,15.5650768 C16.2267158,15.5994341 16.1345842,15.6358124 16.0384468,15.6681487 C15.9463152,15.700485 15.848175,15.7287793 15.7520377,15.7590946 C15.6378746,15.7954729 15.5237115,15.8278092 15.4075455,15.8601455 C15.2673452,15.8985449 15.127145,15.9349232 14.9829389,15.9672595 C14.9088331,15.9834276 14.8307215,15.9975748 14.7526099,16.0137429 C14.6324382,16.0400162 14.5102637,16.0642684 14.3860863,16.0844786 C14.3059719,16.0986257 14.2238545,16.1107518 14.1417372,16.1228779 C14.0135541,16.1430881 13.885371,16.1592563 13.755185,16.1754244 C13.6750706,16.1835085 13.5949561,16.1936136 13.5128388,16.2016977 C13.3686328,16.2158448 13.2244268,16.2259499 13.0782179,16.236055 C13.0081178,16.240097 12.9380176,16.2461601 12.8679175,16.2502021 C12.6496056,16.2623282 12.4312937,16.2683913 12.2069733,16.2683913 C11.9846557,16.2683913 11.764341,16.2603072 11.5460291,16.2502021 C11.4759289,16.2461601 11.4058288,16.240097 11.3357286,16.236055 C11.1895198,16.2259499 11.0433109,16.2158448 10.9011078,16.2016977 C10.8189905,16.1936136 10.738876,16.1855295 10.6587616,16.1754244 C10.5285756,16.1592563 10.4003925,16.1410671 10.2722093,16.1228779 C10.190092,16.1107518 10.1079747,16.0986257 10.0278603,16.0844786 C9.90368287,16.0622474 9.78150833,16.0379951 9.66133666,16.0137429 C9.58522793,15.9995958 9.50711635,15.9834276 9.43100762,15.9672595 C9.28680161,15.9329022 9.14459846,15.8985449 9.00640104,15.8601455 C8.88823223,15.8278092 8.77406913,15.7934519 8.66190891,15.7590946 C8.56577157,15.7287793 8.46963423,15.700485 8.37549975,15.6681487 C8.27936241,15.6358124 8.18723079,15.5994341 8.09509918,15.5650768 C8.02499903,15.5388036 7.95690175,15.5125303 7.88880447,15.4842361 C7.79266713,15.4458367 7.69853265,15.4033953 7.60439818,15.3609539 C7.55032092,15.3367017 7.49624367,15.3124495 7.44416928,15.2861762 C7.34402622,15.2376718 7.24788888,15.1891673 7.1537544,15.1386419 C7.11970576,15.1204527 7.08966284,15.1022635 7.05761706,15.0840744 C6.58694467,14.8172999 6.19438387,14.5161681 5.89195182,14.1847211 C5.88394038,14.176637 5.87392607,14.1665319 5.86591463,14.1564268 C5.79381162,14.0755861 5.7277172,13.9927243 5.66763137,13.9098626 L5.64359703,13.8755053 C5.36920504,13.4874697 5.21097901,13.0670978 5.21097901,12.6285368 L5.21097901,11.5250606 Z M12.2089761,4.5 C16.0744983,4.5 19.2069733,6.130962 19.2069733,8.14389652 L19.210979,9.39692805 C19.210979,9.83548909 19.052753,10.2538399 18.778361,10.6438965 C18.7703495,10.6540016 18.7623381,10.6661277 18.7543266,10.6782538 C18.6942408,10.7611156 18.6281464,10.8419563 18.5560434,10.9227971 C18.5460291,10.9329022 18.5380176,10.9430073 18.5280033,10.9531124 C18.2255713,11.2845594 17.8330105,11.5856912 17.3623381,11.8524656 C17.3302923,11.8706548 17.3002494,11.888844 17.2662008,11.9070331 C17.1720663,11.9575586 17.0739261,12.0060631 16.9757859,12.0545675 C16.9237115,12.0788197 16.8716371,12.105093 16.8175598,12.1293452 C16.7234254,12.1717866 16.6292909,12.214228 16.5311507,12.2546483 C16.4650563,12.2809216 16.3949561,12.3071948 16.3268588,12.3334681 C16.2327244,12.3698464 16.1405927,12.4062247 16.0444554,12.438561 C15.9523238,12.4688763 15.8561864,12.4971706 15.7600491,12.5274859 C15.6719232,12.5537591 15.587803,12.5820534 15.4976743,12.6063056 L15.48766,12.6083266 C15.4616228,12.6143897 15.4315799,12.6204527 15.4055427,12.6285368 C15.2693481,12.6649151 15.1311507,12.7012935 14.9889475,12.7336297 L14.8968159,12.7538399 C14.8727816,12.759903 14.8487472,12.763945 14.8267158,12.7679871 C14.8046843,12.7740501 14.78065,12.7780922 14.7566156,12.7821342 C14.636444,12.8084074 14.5142694,12.8326597 14.390092,12.8528698 C14.3480319,12.8589329 14.3059719,12.869038 14.2639118,12.8751011 L14.1417372,12.8912692 C14.015557,12.9094584 13.8873739,12.9256265 13.7591907,12.9417947 C13.7071163,12.9478577 13.6570448,12.9559418 13.6049704,12.9620049 L13.5088331,12.9700889 C13.3686328,12.9842361 13.2264296,12.9943411 13.0822236,13.0044462 C13.0261435,13.0084883 12.9740691,13.0145513 12.917989,13.0165724 C12.8999633,13.0185934 12.8839404,13.0185934 12.8659146,13.0185934 C12.6496056,13.0286985 12.4312937,13.0347615 12.2089761,13.0347615 C11.9866585,13.0347615 11.7683467,13.0286985 11.5520377,13.0185934 C11.5340119,13.0165724 11.517989,13.0165724 11.4999633,13.0165724 C11.4438832,13.0145513 11.3918088,13.0084883 11.3357286,13.0044462 C11.1915226,12.9943411 11.0493195,12.9842361 10.9091192,12.9700889 L10.8129819,12.9620049 C10.7609075,12.9559418 10.7108359,12.9478577 10.6587616,12.9417947 C10.5305784,12.9276475 10.4023953,12.9094584 10.2762151,12.8912692 L10.1540405,12.8751011 C10.1099776,12.869038 10.0699204,12.8609539 10.0278603,12.8528698 C9.90368287,12.8306386 9.78150833,12.8063864 9.66133666,12.7821342 C9.63730233,12.7760711 9.61326799,12.7720291 9.58923366,12.7679871 L9.52313924,12.755861 C9.49109346,12.7497979 9.46105054,12.7417138 9.43100762,12.7356508 C9.28880447,12.7033145 9.15060705,12.6669361 9.01441248,12.6305578 C8.98637243,12.6244947 8.95833237,12.6184317 8.93229517,12.6103476 L8.92228087,12.6083266 C8.83215211,12.5840744 8.74803194,12.5557801 8.65990604,12.5295069 C8.56376871,12.5012126 8.46763137,12.4729184 8.37549975,12.4405821 C8.27936241,12.4062247 8.18723079,12.3718674 8.09309632,12.3354891 C8.02499903,12.3092158 7.95489889,12.2849636 7.88880447,12.2566694 C7.79066427,12.216249 7.69652979,12.1738076 7.60239532,12.1313662 C7.54831806,12.107114 7.49624367,12.0828618 7.44416928,12.0565885 C7.34402622,12.0080841 7.24788888,11.9595796 7.1537544,11.9090542 L7.05761706,11.8544867 C6.58694467,11.5877122 6.19438387,11.2865804 5.89195182,10.9551334 C5.88394038,10.9470493 5.87392607,10.9369442 5.86591463,10.9268391 C5.79381162,10.8459984 5.7277172,10.7631366 5.66763137,10.6802749 C5.65961992,10.6681487 5.65160848,10.6580437 5.64359703,10.6459175 C5.36920504,10.257882 5.21097901,9.83751011 5.21097901,9.39894907 L5.21097901,8.14389652 C5.21097901,6.130962 8.34345397,4.5 12.2089761,4.5 Z" id="icon-icon_购买货币_path-4" />rn        <filter x="-50.0%" y="-33.3%" width="200.0%" height="193.3%" filterUnits="objectBoundingBox" id="icon-icon_购买货币_filter-5">rn            <feOffset dx="0" dy="2" in="SourceAlpha" result="shadowOffsetOuter1"></feOffset>rn            <feGaussianBlur stdDeviation="2" in="shadowOffsetOuter1" result="shadowBlurOuter1"></feGaussianBlur>rn            <feColorMatrix values="0 0 0 0 0   0 0 0 0 0.8   0 0 0 0 0.8  0 0 0 0.2 0" type="matrix" in="shadowBlurOuter1"></feColorMatrix>rn        </filter>rn    </defs>rn    <g id="icon-icon_购买货币_icon_购买货币" stroke="none" stroke-width="1" fill="none" fill-rule="evenodd">rn        <g>rn            <mask id="icon-icon_购买货币_mask-2" fill="white">rn                <use xlink:href="#icon-icon_购买货币_path-1" />rn            </mask>rn            <g id="icon-icon_购买货币_蒙版"></g>rn            <g id="icon-icon_购买货币_形状结合" fill-rule="nonzero" mask="url(#icon-icon_购买货币_mask-2)">rn                <use fill="black" fill-opacity="1" filter="url(#icon-icon_购买货币_filter-5)" xlink:href="#icon-icon_购买货币_path-4" />rn                <use fill="url(#icon-icon_购买货币_linearGradient-3)" xlink:href="#icon-icon_购买货币_path-4" />rn            </g>rn        </g>rn    </g>rn</svg>