<svg xmlns="http://www.w3.org/2000/svg" xmlns:xlink="http://www.w3.org/1999/xlink">rn    <title>icon_推荐VPN</title>rn    <defs>rn        <rect id="icon-icon_推荐VPN_path-1" x="0" y="0" width="24" height="24" />rn        <linearGradient x1="50%" y1="0%" x2="50%" y2="100%" id="icon-icon_推荐VPN_linearGradient-3">rn            <stop stop-color="#B366FF" offset="0%" />rn            <stop stop-color="#D580FF" offset="100%" />rn        </linearGradient>rn        <path d="M18.7782965,5.60383566 C18.734235,5.41366692 18.585729,5.2651767 18.3955401,5.2211198 C15.0567458,4.44874365 11.5785585,5.73742647 9.54927317,8.49869837 C9.47731035,8.5964726 9.37325694,8.66583418 9.25531623,8.69464889 C8.0693155,8.99021247 6.98665978,9.60426991 6.12436853,10.4704504 C5.71861622,10.8752874 5.36525296,11.3294165 5.07255382,11.8222028 C4.82605867,12.2401285 5.25015281,12.7330666 5.70639849,12.5646716 C6.4259806,12.2983014 7.20374169,12.168178 8.00446817,12.1666471 C7.99375099,12.235536 7.97844073,12.3044248 7.96772355,12.3717828 C9.09425591,13.6811162 10.3174029,14.9041335 11.6268751,16.0305464 L11.8305016,15.9938056 C11.8305016,16.7944472 11.6988334,17.5721258 11.4324349,18.2916316 C11.264022,18.7478289 11.7585434,19.1718781 12.1765134,18.9254091 C12.6695037,18.6330142 13.1242183,18.2793847 13.5284092,17.8737059 C14.3956732,17.0117775 15.0108529,15.9292395 15.3074611,14.7430902 C15.3363997,14.6252151 15.4057433,14.5212108 15.5034324,14.4491645 C18.2641125,12.4188214 19.5516628,8.94057718 18.7782965,5.60230479 L18.7782965,5.60383566 Z M15.2829647,11.1715859 C14.6052466,11.8492321 13.5064485,11.8492321 12.8287304,11.1715859 C12.1510123,10.4939397 12.1510123,9.39525806 12.8287304,8.71761184 C13.5064485,8.03996562 14.6052466,8.03996562 15.2829647,8.71761184 C15.9606828,9.39525806 15.9606828,10.4939397 15.2829647,11.1715859 L15.2829647,11.1715859 Z M6.09527904,15.8131638 C5.61606797,16.2907931 4.59487378,18.2502983 5.1720705,18.8289647 C5.74926721,19.4045693 7.7089802,18.3819526 8.18819126,17.9043232 C8.6658713,17.4251629 8.58625796,16.5694103 8.00753022,15.9922748 C7.43033351,15.4151393 6.5744901,15.3340035 6.09527904,15.8131638 L6.09527904,15.8131638 Z" id="icon-icon_推荐VPN_path-4" />rn        <filter x="-50.0%" y="-35.7%" width="200.0%" height="200.0%" filterUnits="objectBoundingBox" id="icon-icon_推荐VPN_filter-5">rn            <feOffset dx="0" dy="2" in="SourceAlpha" result="shadowOffsetOuter1"></feOffset>rn            <feGaussianBlur stdDeviation="2" in="shadowOffsetOuter1" result="shadowBlurOuter1"></feGaussianBlur>rn            <feColorMatrix values="0 0 0 0 0.701960784   0 0 0 0 0.4   0 0 0 0 1  0 0 0 0.2 0" type="matrix" in="shadowBlurOuter1"></feColorMatrix>rn        </filter>rn    </defs>rn    <g id="icon-icon_推荐VPN_icon_推荐VPN" stroke="none" stroke-width="1" fill="none" fill-rule="evenodd">rn        <g>rn            <mask id="icon-icon_推荐VPN_mask-2" fill="white">rn                <use xlink:href="#icon-icon_推荐VPN_path-1" />rn            </mask>rn            <g id="icon-icon_推荐VPN_蒙版"></g>rn            <g id="icon-icon_推荐VPN_形状" fill-rule="nonzero" mask="url(#icon-icon_推荐VPN_mask-2)">rn                <use fill="black" fill-opacity="1" filter="url(#icon-icon_推荐VPN_filter-5)" xlink:href="#icon-icon_推荐VPN_path-4" />rn                <use fill="url(#icon-icon_推荐VPN_linearGradient-3)" xlink:href="#icon-icon_推荐VPN_path-4" />rn            </g>rn        </g>rn    </g>rn</svg>