<svg xmlns="http://www.w3.org/2000/svg" xmlns:xlink="http://www.w3.org/1999/xlink">rn    <title>icon_代理合作</title>rn    <defs>rn        <rect id="icon-icon_代理合作_path-1" x="0" y="0" width="24" height="24" />rn        <linearGradient x1="50%" y1="0%" x2="50%" y2="100%" id="icon-icon_代理合作_linearGradient-3">rn            <stop stop-color="#3377FF" offset="0%" />rn            <stop stop-color="#4DA6FF" offset="100%" />rn        </linearGradient>rn        <path d="M18.3536874,6.88647251 L19.2786874,6.88647251 C19.8309722,6.88647252 20.2786874,7.33418777 20.2786874,7.88647252 L20.2786874,12.8864725 C20.2786874,13.4387573 19.8309722,13.8864725 19.2786874,13.8864725 L17.4581874,13.8864725 L13.2736874,7.84147252 L12.7871874,7.15247252 L9.80918741,8.52747251 C9.61672809,8.61631706 9.40101501,8.64170537 9.1931874,8.59997252 C8.2841874,8.41747252 7.97918741,8.09947252 8.2781874,7.64547251 C8.5676874,7.20597251 9.79968739,6.32197251 11.9746874,4.99247252 C12.0316874,4.95747253 12.0906874,4.92747253 12.1511874,4.90347251 C13.0646874,4.4734725 14.1071874,4.62847251 15.2781874,5.36897252 C16.2462624,5.98279626 17.2771041,6.49151241 18.3531874,6.88647251 L18.3536874,6.88647251 Z M4.9616874,13.8349725 C4.55371439,13.6986124 4.2786874,13.3166307 4.2786874,12.8864725 L4.2786874,7.88647251 C4.2786874,7.33418777 4.72640264,6.88647251 5.2786874,6.88647251 L7.58468741,6.88647251 L7.5806874,6.88997252 C7.29895148,7.14375711 7.14259941,7.50827086 7.1528933,7.88731674 C7.16318718,8.26636262 7.33909268,8.62185314 7.63418741,8.85997252 C8.36723367,9.45164594 9.35663178,9.61613456 10.2416874,9.29347252 L12.4911874,8.47347251 L14.0686874,10.7534725 C14.1171932,10.7999812 14.160912,10.8512378 14.1991874,10.9064725 L16.9641874,14.9024725 C17.1294458,15.141359 17.1826645,15.4402981 17.1100023,15.7215405 C17.03734,16.0027828 16.8459783,16.2385317 16.5856874,16.3674725 L12.1686874,18.5529725 C11.9636874,18.6544725 11.7386874,18.6794725 11.5286874,18.6369725 L11.6921874,18.4714725 C12.4623478,17.6923399 12.4623478,16.4386052 11.6921874,15.6594725 L8.49218741,12.4214725 C8.21038347,12.1362692 7.8261293,11.9757547 7.4251874,11.9757547 C7.0242455,11.9757547 6.63999134,12.1362692 6.3581874,12.4214725 L4.96118741,13.8349725 L4.9616874,13.8349725 Z M8.0966874,13.4049725 L10.9346874,16.2759725 C11.1836625,16.5280484 11.2806664,16.8930493 11.1896874,17.2354725 L11.0466874,17.7769725 C10.9813053,18.0235128 10.798225,18.2217622 10.5576573,18.3065213 C10.3170895,18.3912804 10.050172,18.3515785 9.84468739,18.2004725 L6.19568741,15.5164725 C5.96171051,15.3443144 5.81415807,15.0789226 5.79140887,14.7893262 C5.76865966,14.4997298 5.87296231,14.2145535 6.07718741,14.0079725 L6.67368739,13.4039725 C6.86155033,13.2138885 7.1176839,13.1069117 7.3849374,13.1069117 C7.6521909,13.1069117 7.90832447,13.2138885 8.09618741,13.4039725 L8.0966874,13.4049725 Z" id="icon-icon_代理合作_path-4" />rn        <filter x="-43.8%" y="-35.7%" width="187.5%" height="200.1%" filterUnits="objectBoundingBox" id="icon-icon_代理合作_filter-5">rn            <feOffset dx="0" dy="2" in="SourceAlpha" result="shadowOffsetOuter1"></feOffset>rn            <feGaussianBlur stdDeviation="2" in="shadowOffsetOuter1" result="shadowBlurOuter1"></feGaussianBlur>rn            <feColorMatrix values="0 0 0 0 0.2   0 0 0 0 0.466666667   0 0 0 0 1  0 0 0 0.2 0" type="matrix" in="shadowBlurOuter1"></feColorMatrix>rn        </filter>rn    </defs>rn    <g id="icon-icon_代理合作_icon_代理合作" stroke="none" stroke-width="1" fill="none" fill-rule="evenodd">rn        <g>rn            <mask id="icon-icon_代理合作_mask-2" fill="white">rn                <use xlink:href="#icon-icon_代理合作_path-1" />rn            </mask>rn            <g id="icon-icon_代理合作_蒙版"></g>rn            <g id="icon-icon_代理合作_形状" fill-rule="nonzero" mask="url(#icon-icon_代理合作_mask-2)">rn                <use fill="black" fill-opacity="1" filter="url(#icon-icon_代理合作_filter-5)" xlink:href="#icon-icon_代理合作_path-4" />rn                <use fill="url(#icon-icon_代理合作_linearGradient-3)" xlink:href="#icon-icon_代理合作_path-4" />rn            </g>rn        </g>rn    </g>rn</svg>