<svg xmlns="http://www.w3.org/2000/svg" xmlns:xlink="http://www.w3.org/1999/xlink">rn    <title>icon_交易记录</title>rn    <defs>rn        <rect id="icon-icon_交易记录_path-1" x="0" y="0" width="24" height="24" />rn        <linearGradient x1="50%" y1="0%" x2="50%" y2="100%" id="icon-icon_交易记录_linearGradient-3">rn            <stop stop-color="#3ECD9D" offset="0%" />rn            <stop stop-color="#80FFBF" offset="100%" />rn        </linearGradient>rn    </defs>rn    <g id="icon-icon_交易记录_icon_交易记录" stroke="none" stroke-width="1" fill="none" fill-rule="evenodd">rn        <g>rn            <mask id="icon-icon_交易记录_mask-2" fill="white">rn                <use xlink:href="#icon-icon_交易记录_path-1" />rn            </mask>rn            <g id="icon-icon_交易记录_蒙版"></g>rn            <path d="M4.90985915,12.9826897 C4.65446009,12.9826897 4.43896714,12.8948069 4.26338028,12.7190413 C4.08779343,12.5432756 4,12.322237 4,12.0559254 L4,10.8575233 C4,10.6125166 4.08779343,10.3994674 4.26338028,10.2183755 C4.43896714,10.0372836 4.65446009,9.94673768 4.90985915,9.94673768 L16.6103286,9.94673768 C16.6954617,9.94673768 16.7805947,9.96271638 16.8657277,9.99467377 C16.4400626,10.0479361 16.0330203,10.1571238 15.6446009,10.322237 C15.2561815,10.4873502 14.9023474,10.7003995 14.5830986,10.9613848 C14.2638498,11.2223702 13.984507,11.5259654 13.7450704,11.8721704 C13.5056338,12.2183755 13.3167449,12.5885486 13.1784038,12.9826897 L4.90985915,12.9826897 Z M12.9389671,14.0053262 C12.9283255,14.0905459 12.9230047,14.1704394 12.9230047,14.2450067 L12.9230047,14.4687084 C12.9230047,14.9480692 12.9921753,15.4007989 13.1305164,15.8268975 C13.2688576,16.252996 13.4604069,16.6471372 13.7051643,17.0093209 L4.90985915,17.0093209 C4.65446009,17.0093209 4.43896714,16.9214381 4.26338028,16.7456724 C4.08779343,16.5699068 4,16.3541944 4,16.0985353 L4,14.9001332 C4,14.6551265 4.08779343,14.4447403 4.26338028,14.2689747 C4.43896714,14.0932091 4.65446009,14.0053262 4.90985915,14.0053262 L12.9389671,14.0053262 L12.9389671,14.0053262 Z M6.88920188,8.94007989 C6.64444444,8.94007989 6.4342723,8.85219707 6.25868545,8.67643142 C6.08309859,8.50066578 5.99530516,8.2849534 5.99530516,8.02929427 L5.99530516,6.92676431 C5.99530516,6.67110519 6.08309859,6.45272969 6.25868545,6.27163782 C6.4342723,6.09054594 6.64444444,6 6.88920188,6 L19.0366197,6 C19.2813772,6 19.4915493,6.09054594 19.6671362,6.27163782 C19.842723,6.45272969 19.9305164,6.67110519 19.9305164,6.92676431 L19.9305164,8.02929427 C19.9305164,8.2849534 19.842723,8.50066578 19.6671362,8.67643142 C19.4915493,8.85219707 19.2813772,8.94007989 19.0366197,8.94007989 L6.88920188,8.94007989 Z M17.4882629,10.9853529 C17.9671362,10.9853529 18.4194053,11.0785619 18.8450704,11.26498 C19.2707355,11.4513981 19.6431925,11.701731 19.9624413,12.0159787 C20.2816901,12.3302264 20.5344288,12.7003995 20.7206573,13.126498 C20.9068858,13.5525965 21,14.0053262 21,14.4846871 C21,14.9747004 20.9068858,15.4327563 20.7206573,15.8588549 C20.5344288,16.2849534 20.2816901,16.6577896 19.9624413,16.9773635 C19.6431925,17.2969374 19.2707355,17.5472703 18.8450704,17.7283622 C18.4194053,17.9094541 17.9671362,18 17.4882629,18 C17.0093897,18 16.5571205,17.9094541 16.1314554,17.7283622 C15.7057903,17.5472703 15.3333333,17.2969374 15.0140845,16.9773635 C14.6948357,16.6577896 14.442097,16.2849534 14.2558685,15.8588549 C14.0696401,15.4327563 13.9765258,14.9747004 13.9765258,14.4846871 C13.9765258,14.0053262 14.0696401,13.5525965 14.2558685,13.126498 C14.442097,12.7003995 14.6948357,12.3302264 15.0140845,12.0159787 C15.3333333,11.701731 15.7057903,11.4513981 16.1314554,11.26498 C16.5571205,11.0785619 17.0093897,10.9853529 17.4882629,10.9853529 Z M19.4676056,15.0599201 C19.5740219,15.0599201 19.6618153,15.0039947 19.7309859,14.8921438 C19.8001565,14.7802929 19.8347418,14.6498003 19.8347418,14.5006658 C19.8347418,14.3515313 19.8001565,14.2263648 19.7309859,14.1251664 C19.6618153,14.023968 19.5740219,13.9733688 19.4676056,13.9733688 L17.9671362,13.9733688 L17.9671362,12.5672437 C17.9671362,12.482024 17.9219092,12.4074567 17.8314554,12.3435419 C17.7410016,12.2796272 17.6159624,12.2476698 17.456338,12.2476698 C17.286072,12.2476698 17.1610329,12.2796272 17.0812207,12.3435419 C17.0014085,12.4074567 16.9615023,12.482024 16.9615023,12.5672437 L16.9615023,14.3249001 C16.9615023,14.3568575 16.9588419,14.3861518 16.9535211,14.412783 C16.9482003,14.4394141 16.9455399,14.4687084 16.9455399,14.5006658 C16.9455399,14.6498003 16.9801252,14.7802929 17.0492958,14.8921438 C17.1184664,15.0039947 17.2062598,15.0599201 17.3126761,15.0599201 L19.4676056,15.0599201 L19.4676056,15.0599201 Z" id="icon-icon_交易记录_形状" fill="url(#icon-icon_交易记录_linearGradient-3)" fill-rule="nonzero" mask="url(#icon-icon_交易记录_mask-2)" />rn        </g>rn    </g>rn</svg>