<svg xmlns="http://www.w3.org/2000/svg" xmlns:xlink="http://www.w3.org/1999/xlink">rn    <title>icon_口令红包</title>rn    <defs>rn        <rect id="icon-icon_口令红包_path-1" x="0" y="0" width="24" height="24" />rn        <linearGradient x1="50%" y1="94.6935946%" x2="50%" y2="0.556809751%" id="icon-icon_口令红包_linearGradient-3">rn            <stop stop-color="#FF8F8B" offset="0%" />rn            <stop stop-color="#FF247D" offset="100%" />rn        </linearGradient>rn        <path d="M6.344,6.04 C4.08499566,6.05785513 1.87353307,5.37461637 0,4.08 L0,13.6666667 C0,14.9553311 1.01855219,16 2.27499999,16 L10.725,16 C11.9814478,16 13,14.9553311 13,13.6666667 L13,3.84666666 C11.0682501,5.29130209 8.73464717,6.06028782 6.344,6.04 Z M9.2755,7.69333334 C9.4944809,7.91792913 9.4944809,8.28207087 9.2755,8.50666666 L8.918,8.87333334 L9.32100001,9.28666666 C9.53004769,9.50246403 9.53004769,9.85086929 9.32100001,10.0666667 L9.3275,10.04 C9.22616474,10.1450408 9.08807509,10.2041461 8.94400001,10.2041461 C8.79992492,10.2041461 8.66183527,10.1450408 8.56050001,10.04 L8.1575,9.62666666 L7.397,10.4066667 C7.88056667,11.2704353 7.74799217,12.3582261 7.07199999,13.0733333 C6.18898563,13.8119811 4.90564581,13.751448 4.09246008,12.9327932 C3.27927434,12.1141383 3.19637843,10.7992471 3.9,9.88 C4.63172112,9.14802172 5.76055447,9.03445978 6.617,9.60666666 L8.48250001,7.69333334 C8.70148091,7.46873755 9.0565191,7.46873755 9.2755,7.69333334 Z M5.21904014,10.5326058 C4.88151858,10.6210846 4.62044981,10.8888475 4.53418293,11.2350234 C4.44791605,11.5811994 4.54955818,11.9531916 4.80081898,12.2108641 C5.05204972,12.4685675 5.41474212,12.5728159 5.75226367,12.484337 C6.08978522,12.3958582 6.350854,12.1280953 6.43712088,11.7819194 C6.52338775,11.4357434 6.42174562,11.0637512 6.17048483,10.8060787 C5.91925409,10.5483753 5.55656169,10.4441269 5.21904014,10.5326058 Z M10.725,0 C11.9814478,0 13,1.04466893 13,2.33333334 L13,2.71333334 C12.9282308,2.73045708 12.861418,2.76472004 12.805,2.81333334 C10.976496,4.33057944 8.68933794,5.14630597 6.33750001,5.12 C4.09111058,5.14104449 1.90126871,4.39785101 0.110499987,3.00666666 C0.0768226856,2.97935089 0.0396405873,2.95691825 0,2.94 L0,2.33333334 C0,1.04466893 1.01855219,0 2.27499999,0 L10.725,0 Z" id="icon-icon_口令红包_path-4" />rn        <filter x="-53.8%" y="-31.3%" width="207.7%" height="187.5%" filterUnits="objectBoundingBox" id="icon-icon_口令红包_filter-5">rn            <feOffset dx="0" dy="2" in="SourceAlpha" result="shadowOffsetOuter1"></feOffset>rn            <feGaussianBlur stdDeviation="2" in="shadowOffsetOuter1" result="shadowBlurOuter1"></feGaussianBlur>rn            <feColorMatrix values="0 0 0 0 1   0 0 0 0 0.4   0 0 0 0 0.670715417  0 0 0 0.2 0" type="matrix" in="shadowBlurOuter1"></feColorMatrix>rn        </filter>rn    </defs>rn    <g id="icon-icon_口令红包_icon_口令红包" stroke="none" stroke-width="1" fill="none" fill-rule="evenodd">rn        <g id="icon-icon_口令红包_icon_输赢报表">rn            <mask id="icon-icon_口令红包_mask-2" fill="white">rn                <use xlink:href="#icon-icon_口令红包_path-1" />rn            </mask>rn            <g id="icon-icon_口令红包_蒙版"></g>rn            <g id="icon-icon_口令红包_编组" mask="url(#icon-icon_口令红包_mask-2)" fill-rule="nonzero">rn                <g transform="translate(5.500000, 4.000000)" id="icon-icon_口令红包_形状">rn                    <use fill="black" fill-opacity="1" filter="url(#icon-icon_口令红包_filter-5)" xlink:href="#icon-icon_口令红包_path-4" />rn                    <use fill="url(#icon-icon_口令红包_linearGradient-3)" xlink:href="#icon-icon_口令红包_path-4" />rn                </g>rn            </g>rn        </g>rn    </g>rn</svg>