<svg xmlns="http://www.w3.org/2000/svg" xmlns:xlink="http://www.w3.org/1999/xlink">rn    <title>icon_红包</title>rn    <defs>rn        <rect id="icon-icon_我的红包_path-1" x="0" y="0" width="24" height="24" />rn        <filter x="-0.1%" y="-0.9%" width="100.3%" height="101.9%" filterUnits="objectBoundingBox" id="icon-icon_我的红包_filter-2">rn            <feOffset dx="0" dy="-1" in="SourceAlpha" result="shadowOffsetInner1"></feOffset>rn            <feComposite in="shadowOffsetInner1" in2="SourceAlpha" operator="arithmetic" k2="-1" k3="1" result="shadowInnerInner1"></feComposite>rn            <feColorMatrix values="0 0 0 0 1   0 0 0 0 1   0 0 0 0 1  0 0 0 0.12 0" type="matrix" in="shadowInnerInner1"></feColorMatrix>rn        </filter>rn        <rect id="icon-icon_我的红包_path-3" x="0" y="0" width="24" height="24" />rn        <linearGradient x1="55.7147859%" y1="100%" x2="50.043837%" y2="0.7670796%" id="icon-icon_我的红包_linearGradient-5">rn            <stop stop-color="#FFCF52" offset="0%" />rn            <stop stop-color="#FE7646" offset="100%" />rn        </linearGradient>rn        <path d="M16.7269009,20.015625 L7.2698197,20.015625 C6.11063709,20.0137823 5.17189556,19.0576314 5.17189556,17.8787972 L5.17189556,7.19462696 L11.472237,9.33479493 L12.5244836,9.33479493 L18.828125,7.19462696 L18.828125,17.8787815 C18.828125,19.0589189 17.8873818,20.015625 16.7269163,20.015625 L16.7269009,20.015625 Z M12.5507905,14.6384365 L14.073262,14.6384365 C14.4547126,14.6384365 14.5928163,14.4411301 14.5994007,14.2003698 C14.5933349,13.8898769 14.3685394,13.6288189 14.066693,13.581729 L12.540937,13.581729 L12.540937,13.2038484 C12.540937,13.2038484 13.6984113,12.0033402 13.9976412,11.7257908 C14.296871,11.4482414 14.3790763,11.2308781 14.1883587,11.0068188 C14.0886663,10.9024164 13.9516598,10.8435031 13.8085581,10.8435031 C13.6654565,10.8435031 13.52845,10.9024164 13.4287575,11.0068188 C13.1821416,11.2141615 12.0016448,12.3444316 12.0016448,12.3444316 C12.0016448,12.3444316 10.9855741,11.2509506 10.7619652,11.0369275 C10.5383562,10.8229045 10.1470675,10.6557068 9.92345859,10.9165396 C9.75467295,11.1558706 9.79628723,11.4871333 10.0188174,11.6756252 C10.16679,11.8194259 11.4360611,13.1871318 11.4360611,13.1871318 L11.4360611,13.5951054 L9.84453778,13.5951054 C9.60777536,13.5951054 9.40061981,14.0231359 9.40720425,14.2639118 C9.41229792,14.3763131 9.46138838,14.4819732 9.54353776,14.5573497 C9.62568714,14.6327263 9.73407011,14.6715568 9.84453778,14.6651894 L11.4294921,14.6651894 L11.4294921,15.8121918 L9.77548593,15.8121918 C9.53330472,15.8335924 9.34379602,16.03345 9.33156796,16.2803516 C9.33736322,16.5367576 9.52557379,16.7508438 9.77548593,16.7853005 L11.4196231,16.7853005 L11.4196231,17.3403994 C11.4195824,17.4892638 11.482082,17.6310545 11.5913864,17.7300731 C11.7006908,17.8290916 11.8463863,17.8759041 11.9917913,17.8587247 C12.2769929,17.8720569 12.5199775,17.6502584 12.5376371,17.3604719 L12.5376371,16.7853005 L14.1653363,16.7853005 C14.4305262,16.7605221 14.6268826,16.5235836 14.6059698,16.2535987 C14.6059698,15.9827297 14.4349747,15.7754027 14.0436706,15.7754027 L12.540937,15.7754027 L12.5507905,14.6384365 Z M12.5244836,8.26472662 L11.472237,8.26472662 L5.17188522,6.12789884 C5.17014678,5.56059593 5.39030039,5.0158704 5.78383264,4.61378449 C6.17736488,4.21169858 6.71197119,3.985259 7.2698197,3.984375 L16.7269009,3.984375 C17.2841788,3.984375 17.8186334,4.20949843 18.2126898,4.61023182 C18.6067462,5.01096522 18.828125,5.5544781 18.828125,6.12120278 L12.5244836,8.26472662 Z" id="icon-icon_我的红包_path-6" />rn        <filter x="-51.3%" y="-31.2%" width="202.5%" height="187.3%" filterUnits="objectBoundingBox" id="icon-icon_我的红包_filter-7">rn            <feOffset dx="0" dy="2" in="SourceAlpha" result="shadowOffsetOuter1"></feOffset>rn            <feGaussianBlur stdDeviation="2" in="shadowOffsetOuter1" result="shadowBlurOuter1"></feGaussianBlur>rn            <feColorMatrix values="0 0 0 0 0.996078431   0 0 0 0 0.37254902   0 0 0 0 0.0784313725  0 0 0 0.2 0" type="matrix" in="shadowBlurOuter1"></feColorMatrix>rn        </filter>rn    </defs>rn    <g id="icon-icon_我的红包_✅设计稿" stroke="none" stroke-width="1" fill="none" fill-rule="evenodd">rn        <g id="icon-icon_我的红包_4-0-任务、红包入口" transform="translate(-20.000000, -835.000000)">rn            <g id="icon-icon_我的红包_列表" transform="translate(0.000000, 386.000000)">rn                <g id="icon-icon_我的红包_icon_红包" transform="translate(20.000000, 432.000000)">rn                    <g id="icon-icon_我的红包_矩形" fill="black" fill-opacity="1">rn                        <use filter="url(#icon-icon_我的红包_filter-2)" xlink:href="#icon-icon_我的红包_path-1" />rn                    </g>rn                    <g id="icon-icon_我的红包_icon_团队输赢报表" transform="translate(0.000000, 15.000000)">rn                        <mask id="icon-icon_我的红包_mask-4" fill="white">rn                            <use xlink:href="#icon-icon_我的红包_path-3" />rn                        </mask>rn                        <g id="icon-icon_我的红包_蒙版"></g>rn                        <g id="icon-icon_我的红包_形状" fill-rule="nonzero" mask="url(#icon-icon_我的红包_mask-4)">rn                            <use fill="black" fill-opacity="1" filter="url(#icon-icon_我的红包_filter-7)" xlink:href="#icon-icon_我的红包_path-6" />rn                            <use fill="url(#icon-icon_我的红包_linearGradient-5)" xlink:href="#icon-icon_我的红包_path-6" />rn                        </g>rn                    </g>rn                    <text id="icon-icon_我的红包_输赢报表" font-family="PingFangSC-Regular, PingFang SC" font-size="14" font-weight="normal" fill="#FFFFFF">rn                        <tspan x="34" y="32">红包</tspan>rn                    </text>rn                    <g id="icon-icon_我的红包_3.1-返回2" transform="translate(319.000000, 19.000000)" fill-rule="nonzero">rn                        <rect id="icon-icon_我的红包_矩形" fill="#000000" opacity="0" x="0" y="0" width="16" height="16" />rn                        <path d="M9.84317187,7.999625 L4.40646875,13.2550781 C4.08603125,13.5653594 4.08603125,14.0675312 4.40646875,14.3768281 C4.72690625,14.686625 5.24678125,14.686625 5.5671875,14.3768281 L11.5837813,8.56039062 C11.90375,8.25060937 11.90375,7.74817188 11.5837813,7.439375 L5.5671875,1.62317188 C5.40648437,1.46826563 5.1964375,1.39082813 4.98635938,1.39082813 C4.77625,1.39082813 4.56620313,1.46828125 4.40646875,1.62367188 C4.08603125,1.93345312 4.08603125,2.43492187 4.40646875,2.74470313 L9.8431875,7.999625" id="icon-icon_我的红包_路径" fill="#B5AFCB" />rn                    </g>rn                </g>rn            </g>rn        </g>rn    </g>rn</svg>