<svg xmlns="http://www.w3.org/2000/svg" xmlns:xlink="http://www.w3.org/1999/xlink">rn    <title>icon_任务中心</title>rn    <defs>rn        <rect id="icon-icon_我的任务_path-1" x="0" y="0" width="24" height="24" />rn        <linearGradient x1="50%" y1="0%" x2="50%" y2="100%" id="icon-icon_我的任务_linearGradient-3">rn            <stop stop-color="#FFAA00" offset="0%" />rn            <stop stop-color="#FFE666" offset="100%" />rn        </linearGradient>rn        <path d="M12.5297778,2.18270063 C12.8448954,2.18270063 13.125,2.45613635 13.125,2.76375154 L13.125,14.4189491 C13.125,14.7265643 12.8448954,15 12.5297778,15 C12.4247386,15 12.3547124,14.9658205 12.2496732,14.9316411 L8.01309155,12.8808732 C7.83802619,12.7783348 7.66296084,12.7783348 7.45288242,12.8808732 L3.14627461,14.9316411 C2.83115696,15.0683589 2.48102624,14.9658205 2.34097396,14.6582054 C2.30596088,14.555667 2.27094782,14.487308 2.27094782,14.3847696 L2.27094782,2.72957207 C2.27094782,2.42195688 2.5510524,2.18270063 2.86617003,2.18270063 L12.5297778,2.18270063 Z M10.25883,0 C10.5739476,0 10.8540522,0.273435723 10.8540522,0.581050899 L10.854,1.245 L1.92867003,1.24520063 C1.64506416,1.24520063 1.38981887,1.43899819 1.34160587,1.70200918 L1.33344782,1.79207207 L1.333,12.533 L0.875326786,12.7489404 C0.560209135,12.8856583 0.210078424,12.7831199 0.0700261361,12.4755047 C0.0350130603,12.4071458 0,12.3046074 0,12.2362485 L0,0.581050899 C0,0.273435722 0.280104575,0 0.595222211,0 L10.25883,0 Z M7.45288242,5.36139088 L6.75262098,6.31841589 L5.56217654,6.66021055 C5.52716347,6.69439002 5.49215041,6.69439002 5.45713733,6.72856947 C5.31708504,6.83110787 5.31708504,7.0020052 5.38711119,7.13872306 L6.15739877,8.09574807 L6.12238569,9.29202935 C6.12238569,9.36038828 6.15739877,9.39456775 6.15739877,9.39456775 C6.22742491,9.53128561 6.40249027,9.633824 6.54254256,9.56546506 L7.69797392,9.15531149 L8.85340528,9.49710614 C8.92343142,9.53128561 8.95844449,9.53128561 8.95844449,9.53128561 C9.13350985,9.53128561 9.27356214,9.42874722 9.27356213,9.25784989 L9.23854907,8.0615686 L10.0088366,7.10454359 C10.0438497,7.07036412 10.0788628,7.03618467 10.0788628,7.0020052 C10.1138759,6.86528734 10.0088366,6.72856947 9.86878435,6.66021055 L8.67833992,6.31841589 L7.97807848,5.36139088 L7.87303927,5.25885248 C7.73298698,5.15631409 7.55792161,5.19049356 7.45288242,5.36139088 Z" id="icon-icon_我的任务_path-4" />rn        <filter x="-53.3%" y="-33.3%" width="206.7%" height="193.3%" filterUnits="objectBoundingBox" id="icon-icon_我的任务_filter-5">rn            <feOffset dx="0" dy="2" in="SourceAlpha" result="shadowOffsetOuter1"></feOffset>rn            <feGaussianBlur stdDeviation="2" in="shadowOffsetOuter1" result="shadowBlurOuter1"></feGaussianBlur>rn            <feColorMatrix values="0 0 0 0 1   0 0 0 0 0.666666667   0 0 0 0 0  0 0 0 0.2 0" type="matrix" in="shadowBlurOuter1"></feColorMatrix>rn        </filter>rn    </defs>rn    <g id="icon-icon_我的任务_icon_任务中心" stroke="none" stroke-width="1" fill="none" fill-rule="evenodd">rn        <g>rn            <mask id="icon-icon_我的任务_mask-2" fill="white">rn                <use xlink:href="#icon-icon_我的任务_path-1" />rn            </mask>rn            <g id="icon-icon_我的任务_蒙版"></g>rn            <g id="icon-icon_我的任务_编组" mask="url(#icon-icon_我的任务_mask-2)" fill-rule="nonzero">rn                <g transform="translate(5.437500, 4.500000)" id="icon-icon_我的任务_路径-2">rn                    <use fill="black" fill-opacity="1" filter="url(#icon-icon_我的任务_filter-5)" xlink:href="#icon-icon_我的任务_path-4" />rn                    <use fill="url(#icon-icon_我的任务_linearGradient-3)" xlink:href="#icon-icon_我的任务_path-4" />rn                </g>rn            </g>rn        </g>rn    </g>rn</svg>