<?xml version="1.0" encoding="UTF-8"?>
<svg width="41px" height="40px" viewBox="0 0 41 40" version="1.1" xmlns="http://www.w3.org/2000/svg" xmlns:xlink="http://www.w3.org/1999/xlink">
    <title>icon/安全中心</title>
    <defs>
        <rect id="path-1" x="10" y="10" width="20" height="20"></rect>
        <linearGradient x1="0%" y1="2.84493117%" x2="100%" y2="97.1550688%" id="linearGradient-3">
            <stop stop-color="#D754FF" offset="0%"></stop>
            <stop stop-color="#6A99FE" offset="100%"></stop>
        </linearGradient>
    </defs>
    <g id="✅终稿" stroke="none" stroke-width="1" fill="none" fill-rule="evenodd">
        <g id="4-0个人中心" transform="translate(-309.000000, -216.000000)">
            <g id="邀请" transform="translate(0.750000, 202.000000)">
                <g id="编组-4备份-3" transform="translate(284.500000, 0.000000)">
                    <g id="编组-3" transform="translate(24.284346, 14.000000)">
                        <circle id="椭圆形" fill="#C5CAE9" opacity="0.12" cx="20" cy="20" r="20"></circle>
                        <mask id="mask-2" fill="white">
                            <use xlink:href="#path-1"></use>
                        </mask>
                        <g id="蒙版"></g>
                        <path d="M30,17.3541494 L30,27.3541494 C30,28.8269088 28.8060927,30.0208161 27.3333333,30.0208161 L12.6666667,30.0208161 C11.1939073,30.0208161 10,28.8269088 10,27.3541494 L10,17.3541494 L30,17.3541494 Z M23.961808,18.7066484 C23.8285304,18.6442817 23.6745474,18.643789 23.5408735,18.7053016 L19.5593257,20.5374853 C19.3858934,20.6172934 19.2730454,20.788897 19.2684844,20.9797563 L19.17783,24.7732833 L19.1969747,24.9227617 C19.7489748,26.8521386 21.2340236,28.2117583 23.5936764,28.9885341 L23.6786735,29.0084998 C23.735845,29.0167459 23.7936089,29.0149489 23.8494391,29.0036214 L23.874,28.996 L23.8570991,29.005573 C23.8787628,28.9991612 23.9446408,28.9777301 24.0828327,28.9340534 C24.2391969,28.8846333 24.4024087,28.8269853 24.5789065,28.7562405 C25.0908341,28.5510469 25.5966905,28.2830889 26.0723837,27.9378013 L26.2886259,27.7736761 C27.2059546,27.0455326 27.8640492,26.0966109 28.1513934,24.9021767 L28.14,24.899 L28.1562264,24.8828347 C28.2070871,24.8261939 28.1930917,24.8252578 28.165101,24.8233855 L28.1753724,24.3524068 L28.1652538,20.9887188 C28.1641025,20.7957279 28.0519836,20.6206303 27.8771811,20.5388322 Z M23.747,19.71 L27.167,21.31 L27.1762979,23.521297 L27.17,24.687 L27.1588946,24.7016076 L27.145149,24.7200866 C27.140475,24.7285628 27.1439757,24.7300808 27.1508229,24.7290075 L27.16283,24.7255177 L27.174,24.6861348 L27.1154556,24.9035244 C26.8597423,25.7512517 26.3611731,26.4365165 25.6763148,26.9829265 L25.484959,27.1285225 L25.3780476,27.2026611 C24.9289123,27.5014288 24.2359631,27.8222067 23.802,28.002 L23.630001,27.9432328 C21.8220224,27.2884784 20.7016819,26.2643577 20.2250693,24.8610384 L20.179,24.714 L20.261,21.315 L23.747,19.71 Z M25.8731107,22.2951545 C25.6850261,22.0929695 25.36865,22.0815389 25.166465,22.2696235 L23.169,24.127 L22.2604284,23.2134253 C22.0657043,23.0176266 21.749123,23.0167554 21.5533243,23.2114794 C21.3575255,23.4062035 21.3566543,23.7227848 21.5513784,23.9185835 L22.8013581,25.1754619 C22.9915042,25.3666574 23.2990088,25.3726339 23.4964404,25.1889712 L25.8475797,23.0018002 C26.0497647,22.8137156 26.0611953,22.4973395 25.8731107,22.2951545 Z M27.3333333,10.5981348 C28.8060927,10.5981348 30,11.7920421 30,13.2648014 L30,15.7223284 L10,15.7223284 L10,13.2648014 C10,11.7920421 11.1939073,10.5981348 12.6666667,10.5981348 L27.3333333,10.5981348 Z" id="形状结合" fill="url(#linearGradient-3)" fill-rule="nonzero" mask="url(#mask-2)"></path>
                    </g>
                </g>
            </g>
        </g>
    </g>
</svg>