<?xml version="1.0" encoding="UTF-8"?>
<svg width="40px" height="40px" viewBox="0 0 40 40" version="1.1" xmlns="http://www.w3.org/2000/svg" xmlns:xlink="http://www.w3.org/1999/xlink">
    <title>icon/我的收入</title>
    <defs>
        <rect id="path-1" x="0" y="0" width="20" height="20"></rect>
        <linearGradient x1="0.00562897682%" y1="0%" x2="99.994371%" y2="100%" id="linearGradient-3">
            <stop stop-color="#D754FF" offset="0%"></stop>
            <stop stop-color="#6A99FE" offset="100%"></stop>
        </linearGradient>
    </defs>
    <g id="✅终稿" stroke="none" stroke-width="1" fill="none" fill-rule="evenodd">
        <g id="4-0个人中心" transform="translate(-120.000000, -216.000000)">
            <g id="邀请" transform="translate(0.750000, 202.000000)">
                <g id="编组-4备份-5" transform="translate(95.000000, 0.000000)">
                    <g id="编组-3" transform="translate(24.284346, 14.000000)">
                        <circle id="椭圆形" fill="#C5CAE9" opacity="0.12" cx="20" cy="20" r="20"></circle>
                        <g id="形状结合" transform="translate(10.000000, 10.000000)">
                            <mask id="mask-2" fill="white">
                                <use xlink:href="#path-1"></use>
                            </mask>
                            <g id="蒙版"></g>
                            <path d="M15.3354508,0.0531109129 L17.449653,0.0542368033 C18.9224123,0.0542368033 20.1163196,1.24814414 20.1163196,2.72090347 L20.1163196,17.3875701 C20.1163196,18.8603295 18.9224123,20.0542368 17.449653,20.0542368 L2.78298629,20.0542368 C1.31022695,20.0542368 0.116319621,18.8603295 0.116319621,17.3875701 L0.116319621,2.72090347 C0.116319621,1.24814414 1.31022695,0.0542368033 2.78298629,0.0542368033 L4.89718842,0.0531109129 C4.82323361,0.261948282 4.78298629,0.486725744 4.78298629,0.72090347 L4.78298629,6.0542368 C4.78298629,7.1588063 5.67841679,8.0542368 6.78298629,8.0542368 L13.449653,8.0542368 C14.5542225,8.0542368 15.449653,7.1588063 15.449653,6.0542368 L15.449653,0.72090347 C15.449653,0.486725744 15.4094056,0.261948282 15.3354508,0.0531109129 Z M12.005179,10.2298478 L10.448653,11.7852368 L8.89391939,10.2306543 C8.65828595,9.9965063 8.28045001,9.9965063 8.04481657,10.2306543 C7.93248913,10.3426353 7.86925329,10.4954505 7.86925329,10.654919 C7.86925329,10.8143874 7.93248913,10.9672026 8.04481657,11.0791837 L9.40265295,12.4342368 L8.04882178,12.4345567 C7.7187994,12.4345567 7.44965295,12.7033572 7.44965295,13.0337046 C7.45185812,13.3662045 7.7198567,13.6341937 8.04882178,13.6328576 L9.84965295,13.6322368 L9.84965295,14.7532368 L8.04882178,14.7542308 C7.7187994,14.7542308 7.44965295,15.0230314 7.44965295,15.3533788 C7.45185812,15.6858787 7.7198567,15.9538679 8.04882178,15.9525317 L9.84965295,15.9522368 L9.85036474,17.154292 C9.8525699,17.4498728 10.120578,17.6881037 10.4495492,17.6869082 C10.7803695,17.6869082 11.048718,17.4479257 11.048718,17.1521131 L11.048653,15.9522368 L12.850261,15.9525317 C13.1810813,15.9525317 13.447834,15.6837261 13.447834,15.3533788 C13.447834,15.0230314 13.1794855,14.7542308 12.8486495,14.7542308 L11.048653,14.7532368 L11.048653,13.6322368 L12.850261,13.6328576 C13.1810813,13.6328576 13.447834,13.3648426 13.447834,13.0337046 C13.447834,12.7033572 13.1794855,12.4345567 12.8486495,12.4345567 L11.495653,12.4342368 L12.8542818,11.0783772 C12.9666093,10.9663961 13.0298451,10.8135809 13.0298451,10.6541125 C13.0298451,10.494644 12.9666093,10.3418288 12.8542818,10.2298478 C12.6186484,9.9956998 12.2408125,9.9956998 12.005179,10.2298478 Z M10.1045277,1.31259091 C10.4370338,1.31479608 10.7050256,1.5828042 10.7036808,1.91177538 L10.7036322,4.57559091 L11.6606868,3.61878931 C11.7502716,3.52892736 11.8659903,3.47048403 11.9903422,3.45070117 L12.0849515,3.44322603 C12.2444199,3.44322603 12.3972351,3.50646187 12.5092161,3.61878931 C12.6266167,3.73494017 12.6849059,3.88953158 12.6849059,4.04254281 C12.6849059,4.19553839 12.6250038,4.34933189 12.5092161,4.46789213 L10.5295989,6.44725979 C10.4176179,6.55958723 10.2648027,6.62282308 10.1053342,6.62282308 C9.94586578,6.62282308 9.79305059,6.55958723 9.68106955,6.44725979 C9.67730814,6.44347452 9.67360715,6.43965254 9.66996658,6.43579505 L7.69983934,4.46787648 C7.46622979,4.23234173 7.46622979,3.85512198 7.69983934,3.61958723 C7.81182038,3.50725979 7.96463557,3.44402394 8.12410403,3.44402394 C8.28357249,3.44402394 8.43638767,3.50725979 8.54836871,3.61958723 L9.50463218,4.57459091 L9.50537471,1.91177538 C9.50416434,1.61570132 9.72111665,1.36900733 10.0069162,1.32102171 L10.1045277,1.31259091 Z" fill="url(#linearGradient-3)" fill-rule="nonzero" mask="url(#mask-2)"></path>
                        </g>
                    </g>
                </g>
            </g>
        </g>
    </g>
</svg>