<?xml version="1.0" encoding="UTF-8"?>
<svg width="41px" height="40px" viewBox="0 0 41 40" version="1.1" xmlns="http://www.w3.org/2000/svg" xmlns:xlink="http://www.w3.org/1999/xlink">
    <title>icon/投注记录</title>
    <defs>
        <rect id="path-1" x="0" y="0" width="20" height="20"></rect>
        <linearGradient x1="0%" y1="6.05111483%" x2="100%" y2="93.9488852%" id="linearGradient-3">
            <stop stop-color="#D754FF" offset="0%"></stop>
            <stop stop-color="#6A99FE" offset="100%"></stop>
        </linearGradient>
    </defs>
    <g id="✅终稿" stroke="none" stroke-width="1" fill="none" fill-rule="evenodd">
        <g id="4-0个人中心" transform="translate(-214.000000, -216.000000)">
            <g id="邀请" transform="translate(0.750000, 202.000000)">
                <g id="编组-4备份-4" transform="translate(189.750000, 0.000000)">
                    <g id="icon/投注记录" transform="translate(24.284346, 14.000000)">
                        <g id="编组-3" fill="#C5CAE9" opacity="0.12">
                            <circle id="椭圆形" cx="20" cy="20" r="20"></circle>
                        </g>
                        <g id="形状结合" transform="translate(10.000000, 10.000000)">
                            <mask id="mask-2" fill="white">
                                <use xlink:href="#path-1"></use>
                            </mask>
                            <g id="蒙版"></g>
                            <path d="M16.3442648,0.415703603 C17.7249767,0.415703603 18.8442648,1.53499174 18.8442648,2.91570363 L18.8453947,9.37724051 C17.9030222,8.83333254 16.8262212,8.54010126 15.719264,8.54070405 C12.2674845,8.54070405 9.46926437,11.3389251 9.46926437,14.7907046 C9.46926437,16.4944968 10.1510205,18.0390564 11.2566162,19.1664665 L2.59426468,19.1657038 C1.21355279,19.1657038 0.0942646555,18.0464156 0.0942646555,16.6657038 L0.0942646555,2.91570363 C0.0942646555,1.53499174 1.21355279,0.415703603 2.59426468,0.415703603 L16.3442648,0.415703603 Z M15.7192645,10.4157037 C16.8797804,10.4150717 17.9929462,10.8758047 18.813555,11.6964135 C19.6341638,12.5170223 20.0948968,13.6301882 20.0942648,14.7907041 C20.0942648,17.2069497 18.1355101,19.1657038 15.7192645,19.1657038 C13.3030189,19.1657038 11.3442648,17.2069497 11.3442648,14.7907041 C11.3442648,12.3744584 13.3030189,10.4157037 15.7192645,10.4157037 Z M15.7407036,11.7268557 C15.6046463,11.6453197 15.4334282,11.6453197 15.2973709,11.7268557 C15.1613136,11.8083917 15.0833512,11.9577197 15.095504,12.1135088 L15.095504,14.9971838 C15.0968623,15.2260446 15.2866402,15.4108692 15.520272,15.4108654 L17.8268615,15.4108654 C18.0482551,15.3991309 18.2192648,15.218321 18.2192648,15.0008126 C18.2192648,14.7833042 18.0482551,14.6024943 17.8268615,14.5859214 L15.9425705,14.5859214 L15.9425705,12.1135088 C15.9547233,11.9577197 15.876761,11.8083917 15.7407036,11.7268557 Z M11.6947136,6.66570366 L3.43464937,6.66570366 C2.97107433,6.66570366 2.59426468,7.04251331 2.59426468,7.50608835 C2.59426468,7.96966338 2.97107433,8.34647304 3.43464937,8.34647304 L11.6959531,8.34647304 C12.1595282,8.34647304 12.5363378,7.96966338 12.5351014,7.50608835 C12.5351014,7.04251331 12.1582887,6.66570366 11.6947136,6.66570366 Z M8.00470593,3.54070363 L3.43464937,3.54070363 C2.97107433,3.54070363 2.59426468,3.91751329 2.59426468,4.38108832 C2.59426468,4.84466336 2.97107433,5.22147301 3.43464937,5.22147301 L8.00470593,5.22147301 C8.46828096,5.22147301 8.84509061,4.84466336 8.84509061,4.38108832 C8.84509061,3.91751329 8.46828096,3.54070363 8.00470593,3.54070363 Z" fill="url(#linearGradient-3)" fill-rule="nonzero" mask="url(#mask-2)"></path>
                        </g>
                    </g>
                </g>
            </g>
        </g>
    </g>
</svg>