<?xml version="1.0" encoding="UTF-8"?>
<svg width="40px" height="40px" viewBox="0 0 40 40" version="1.1" xmlns="http://www.w3.org/2000/svg" xmlns:xlink="http://www.w3.org/1999/xlink">
    <title>icon/邀请好友</title>
    <defs>
        <rect id="path-1" x="0" y="0" width="20" height="20"></rect>
        <linearGradient x1="0%" y1="6.57411572%" x2="100%" y2="93.4258843%" id="linearGradient-3">
            <stop stop-color="#D754FF" offset="0%"></stop>
            <stop stop-color="#6A99FE" offset="100%"></stop>
        </linearGradient>
    </defs>
    <g id="✅终稿" stroke="none" stroke-width="1" fill="none" fill-rule="evenodd">
        <g id="4-0个人中心" transform="translate(-25.000000, -216.000000)">
            <g id="邀请" transform="translate(0.750000, 202.000000)">
                <g id="编组-3" transform="translate(24.284346, 14.000000)">
                    <circle id="椭圆形" fill="#C5CAE9" opacity="0.12" cx="20" cy="20" r="20"></circle>
                    <g id="编组" transform="translate(10.000000, 10.000000)">
                        <mask id="mask-2" fill="white">
                            <use xlink:href="#path-1"></use>
                        </mask>
                        <g id="蒙版"></g>
                        <g mask="url(#mask-2)" fill="url(#linearGradient-3)" fill-rule="nonzero" id="路径-2">
                            <g transform="translate(-0.000161, 0.591508)">
                                <path d="M8.63660451,0 C11.6503067,0 14.0917375,2.44338394 14.0917375,5.45513297 C14.0917375,7.48054395 12.9862576,9.24228041 11.3495224,10.1836961 C14.4608818,11.2715977 16.7831708,14.1368609 17.1659871,17.6173646 C17.2265346,18.1642451 16.7929365,18.6388593 16.259728,18.6388593 L0.911917481,18.6388593 C0.378708996,18.6388593 -0.054889113,18.1642451 0.00565837065,17.6173646 C0.390427864,14.1134231 2.742014,11.2325348 5.88657687,10.1602584 C4.26937311,9.21493639 3.18147155,7.46296565 3.18147155,5.45513297 C3.18147155,2.44143079 5.62290234,0 8.63660451,0 Z M17.2714569,7.27351062 C17.7656025,7.27351062 18.1659972,7.67390527 18.1659972,8.16805086 L18.1659972,9.10751343 L19.1054598,9.10751343 C19.5996053,9.10751343 20,9.50790808 20,10.0020537 C20,10.4961993 19.5996053,10.8965939 19.1054598,10.8965939 L18.1659972,10.8965939 L18.1659972,11.8360565 C18.1659972,12.3302021 17.7656025,12.7305967 17.2714569,12.7305967 C16.7773114,12.7305967 16.3769167,12.3302021 16.3769167,11.8360565 L16.3769167,10.8965939 L15.4374541,10.8965939 C14.9433085,10.8965939 14.5429139,10.4961993 14.5429139,10.0020537 C14.5429139,9.50790808 14.9433085,9.10751343 15.4374541,9.10751343 L16.3769167,9.10751343 L16.3769167,8.16805086 C16.3769167,7.67390527 16.7773114,7.27351062 17.2714569,7.27351062 Z"></path>
                            </g>
                        </g>
                    </g>
                </g>
            </g>
        </g>
    </g>
</svg>