<svg xmlns="http://www.w3.org/2000/svg" xmlns:xlink="http://www.w3.org/1999/xlink">rn    <title>icon/活动_s</title>rn    <defs>rn        <linearGradient x1="92.3716119%" y1="89.0345674%" x2="0.172246685%" y2="0%" id="icon-活动_s_linearGradient-1">rn            <stop stop-color="#5844FF" offset="0%" />rn            <stop stop-color="#B42DFF" offset="100%" />rn        </linearGradient>rn    </defs>rn    <g id="icon-活动_s_✅终稿" stroke="none" stroke-width="1" fill="none" fill-rule="evenodd">rn        <g id="icon-活动_s_2-0-活动页" transform="translate(-93.000000, -737.000000)">rn            <g id="icon-活动_s_底部" transform="translate(0.000000, 712.000000)">rn                <g id="icon-活动_s_icon/活动_s" transform="translate(93.000000, 25.000000)">rn                    <rect id="icon-活动_s_矩形" fill="#000000" fill-rule="nonzero" opacity="0" x="0" y="0" width="20" height="20" />rn                    <path d="M16.1685156,17.2513086 L10.8785156,17.2513086 L10.8785156,9.86130859 L16.1785156,9.86130859 C16.4385156,9.86130859 16.6585156,10.0813086 16.6585156,10.3413086 L16.6585156,16.7712891 C16.6485156,17.0412891 16.4385156,17.2513086 16.1685156,17.2513086 M11.5285156,4.39130859 C12.2785156,3.48130859 13.2585156,2.80130859 14.3785156,2.43130859 C14.7485156,2.30130859 15.1585156,2.34130859 15.4985156,2.53130859 C15.6885156,2.62130859 15.8285156,2.81130859 15.8585156,3.02130859 C15.7885156,3.54130859 15.5385156,4.03130859 15.1485156,4.39130859 L11.5285156,4.39130859 Z M17.7185156,6.05130859 L17.7185156,8.19130859 C17.7185156,8.45130859 17.5085156,8.67130859 17.2385156,8.67130859 L10.8684961,8.67130859 L10.8684961,5.56130859 L17.2384961,5.56130859 C17.5084961,5.57130859 17.7185156,5.78130859 17.7185156,6.05130859 M9.68849609,9.85130859 L9.68849609,17.2413086 L4.38849609,17.2413086 C4.12849609,17.2413086 3.90849609,17.0313086 3.90849609,16.7613086 L3.90849609,10.3313086 C3.90849609,10.0713086 4.11849609,9.85130859 4.38849609,9.85130859 L9.68849609,9.85130859 Z M4.70849609,3.01130859 C4.73849609,2.80130859 4.86849609,2.61130859 5.06849609,2.52130859 C5.40849609,2.33130859 5.81849609,2.29130859 6.18849609,2.42130859 C7.29849609,2.79130859 8.28849609,3.47130859 9.02849609,4.38130859 L5.40849609,4.38130859 C5.01849609,4.02130859 4.76849609,3.53130859 4.70849609,3.01130859 M2.83849609,6.04130859 C2.83849609,5.78130859 3.04849609,5.56130859 3.31849609,5.56130859 L9.68849609,5.56130859 L9.68849609,8.66130859 L3.31849609,8.66130859 C3.05849609,8.66130859 2.83849609,8.45130859 2.83849609,8.18130859 L2.83849609,6.04130859 Z" id="icon-活动_s_形状结合" fill="url(#icon-活动_s_linearGradient-1)" />rn                </g>rn            </g>rn        </g>rn    </g>rn</svg>