<svg xmlns="http://www.w3.org/2000/svg" xmlns:xlink="http://www.w3.org/1999/xlink">rn    <title>icon/首页_s</title>rn    <defs>rn        <rect id="icon-首页_s_path-1" x="0" y="0" width="20" height="20" />rn        <linearGradient x1="92.5180838%" y1="83.2962238%" x2="0%" y2="7.35033588%" id="icon-首页_s_linearGradient-3">rn            <stop stop-color="#5844FF" offset="0%" />rn            <stop stop-color="#B42DFF" offset="100%" />rn        </linearGradient>rn    </defs>rn    <g id="icon-首页_s_✅终稿" stroke="none" stroke-width="1" fill="none" fill-rule="evenodd">rn        <g id="icon-首页_s_1-0-首页" transform="translate(-27.000000, -2077.000000)">rn            <g id="icon-首页_s_底部" transform="translate(0.000000, 2037.714653)">rn                <g id="icon-首页_s_icon/首页_s" transform="translate(27.000000, 39.285347)">rn                    <mask id="icon-首页_s_mask-2" fill="white">rn                        <use xlink:href="#icon-首页_s_path-1" />rn                    </mask>rn                    <g id="icon-首页_s_蒙版" fill-rule="nonzero"></g>rn                    <path d="M10.9706983,1.44213195 C10.9274979,1.39084267 10.8373776,1.30713069 10.7114959,1.22411331 C10.4860382,1.07560071 10.2463745,1 9.99931659,1 C9.73368339,1 9.48799229,1.07627292 9.26892052,1.22615233 C9.12376895,1.32604207 9.04612922,1.41582631 9.0127206,1.46039354 L0.481738418,9.88097717 C0.335578539,10.0247395 0.255272391,10.2164749 0.255272391,10.4203324 C0.255272391,10.6235402 0.335578539,10.8152308 0.481738418,10.9590379 C0.750396542,11.2256794 1.14262844,11.1493841 1.51626266,10.781486 L2.08969875,10.2144583 L3.02836648,9.31627976 L3.02836648,17.0437028 C3.02836648,18.1224357 3.91608104,19 5.00729461,19 L8.34575832,19 L8.34575832,13.4362224 C8.34575832,13.0069072 8.70083967,12.6578981 9.13694418,12.6578981 L10.8627197,12.6578981 C11.2991379,12.6578981 11.6535247,13.0069072 11.6535247,13.4362224 L11.6535247,19 L14.9923693,19 C16.0832468,19 16.9716111,18.1224357 16.9716111,17.0437028 L16.9716111,9.36149678 L18.4837373,10.8483033 C18.7415954,11.0170717 18.9731477,11.1068559 19.1608051,11.1068559 C19.3005342,11.1068559 19.4173411,11.058233 19.5179031,10.9590155 C19.6637044,10.8152084 19.7440554,10.6241676 19.7447276,10.42031 C19.7447276,10.2164749 19.6643766,10.0247395 19.5178807,9.88030497 L10.9706983,1.44213195 Z" id="icon-首页_s_路径" fill="url(#icon-首页_s_linearGradient-3)" mask="url(#icon-首页_s_mask-2)" />rn                </g>rn            </g>rn        </g>rn    </g>rn</svg>