<svg xmlns="http://www.w3.org/2000/svg" xmlns:xlink="http://www.w3.org/1999/xlink">rn    <title>icon/首页_n</title>rn    <defs>rn        <rect id="icon-首页_n_path-1" x="0" y="0" width="20" height="20" />rn    </defs>rn    <g id="icon-首页_n_✅终稿" stroke="none" stroke-width="1" fill="none" fill-rule="evenodd">rn        <g id="icon-首页_n_4-0个人中心" transform="translate(-27.000000, -737.000000)">rn            <g id="icon-首页_n_底部" transform="translate(0.000000, 712.000000)">rn                <g id="icon-首页_n_icon/首页_n" transform="translate(27.000000, 25.000000)">rn                    <mask id="icon-首页_n_mask-2" fill="white">rn                        <use xlink:href="#icon-首页_n_path-1" />rn                    </mask>rn                    <g id="icon-首页_n_蒙版" fill-rule="nonzero"></g>rn                    <path d="M9.99931659,1.6 L19.0966334,10.3075645 L16.3716111,7.9300894 L16.3716111,17.0437028 C16.3716111,17.4168061 16.2171735,17.754632 15.9694109,17.9995224 C15.7190357,18.246995 15.373314,18.4 14.9923693,18.4 L12.2535247,18.4 L12.2535247,13.4362224 C12.2535247,13.0549704 12.0970627,12.7088344 11.8426014,12.458389 C11.5916828,12.2114305 11.2453425,12.0578981 10.8627197,12.0578981 L9.13694418,12.0578981 C8.75460662,12.0578981 8.40807058,12.2113897 8.15696367,12.4584146 C7.90234591,12.7088933 7.74575832,13.0550404 7.74575832,13.4362224 L7.74575832,18.4 L5.00729461,18.4 C4.62631891,18.4 4.2807064,18.2470811 4.03044306,17.9996797 C3.78269428,17.7547642 3.62836648,17.4168651 3.62836648,17.0437028 L3.62836648,7.91161117 L1.66782531,9.78781701 L1.09529309,10.3539529 L9.41269825,1.90864762 C9.69109401,1.68510497 9.83297658,1.6 9.99931659,1.6 Z" id="icon-首页_n_路径" stroke="#BABDFF" stroke-width="1.2" mask="url(#icon-首页_n_mask-2)" />rn                </g>rn            </g>rn        </g>rn    </g>rn</svg>