<svg xmlns="http://www.w3.org/2000/svg" xmlns:xlink="http://www.w3.org/1999/xlink">rn    <title>icon/我的_s</title>rn    <defs>rn        <linearGradient x1="88.7406508%" y1="89.0345674%" x2="4.44214876%" y2="0%" id="icon-我的_s_linearGradient-1">rn            <stop stop-color="#5844FF" offset="0%" />rn            <stop stop-color="#B42DFF" offset="100%" />rn        </linearGradient>rn    </defs>rn    <g id="icon-我的_s_✅终稿" stroke="none" stroke-width="1" fill="none" fill-rule="evenodd">rn        <g id="icon-我的_s_4-0个人中心" transform="translate(-328.000000, -737.000000)">rn            <g id="icon-我的_s_底部" transform="translate(0.000000, 712.000000)">rn                <g id="icon-我的_s_icon/我的_s" transform="translate(328.000000, 25.000000)">rn                    <rect id="icon-我的_s_矩形" fill="#000000" fill-rule="nonzero" opacity="0" x="0" y="0" width="20" height="20" />rn                    <path d="M12,10.4 C15.5348047,10.4 18.4,13.2651953 18.4,16.8 L18.4,17.2 C18.4,18.0836556 17.6836556,18.8 16.8,18.8 L3.2,18.8 C2.3163444,18.8 1.6,18.0836556 1.6,17.2 L1.6,16.8 C1.6,13.2651953 4.46519531,10.4 8,10.4 L12,10.4 L12,10.4 Z M10,1.2 C12.2091992,1.2 14,2.99080078 14,5.2 C14,7.40919922 12.2091992,9.2 10,9.2 C7.79080078,9.2 6,7.40919922 6,5.2 C6,2.99080078 7.79080078,1.2 10,1.2 Z" id="icon-我的_s_形状" fill="url(#icon-我的_s_linearGradient-1)" />rn                </g>rn            </g>rn        </g>rn    </g>rn</svg>