<svg xmlns="http://www.w3.org/2000/svg" xmlns:xlink="http://www.w3.org/1999/xlink">rn    <title>icon/我的_n</title>rn    <g id="icon-我的_n_✅终稿" stroke="none" stroke-width="1" fill="none" fill-rule="evenodd">rn        <g id="icon-我的_n_1-0-首页" transform="translate(-328.000000, -2077.000000)" fill-rule="nonzero">rn            <g id="icon-我的_n_底部" transform="translate(0.000000, 2037.714653)">rn                <g id="icon-我的_n_icon/我的_n" transform="translate(328.000000, 39.285347)">rn                    <rect id="icon-我的_n_矩形" fill="#000000" opacity="0" x="0" y="0" width="20" height="20" />rn                    <path d="M12,10.4 C15.5348047,10.4 18.4,13.2651953 18.4,16.8 L18.4,17.2 C18.4,18.0836556 17.6836556,18.8 16.8,18.8 L3.2,18.8 C2.3163444,18.8 1.6,18.0836556 1.6,17.2 L1.6,16.8 C1.6,13.2651953 4.46519531,10.4 8,10.4 L12,10.4 L12,10.4 Z M12,11.6 L8,11.6 C5.16919922,11.6 2.86679688,13.8619922 2.80160156,16.677207 L2.8,16.8 L2.8,17.2 C2.8,17.4027937 2.95180207,17.5734818 3.15320313,17.597207 L3.2,17.6 L16.8,17.6 C17.0027937,17.6 17.1734818,17.4481979 17.197207,17.2467969 L17.2,17.2 L17.2,16.8 C17.2,13.9691992 14.9380078,11.6667969 12.122793,11.6016016 L12,11.6 Z M10,1.2 C12.2091992,1.2 14,2.99080078 14,5.2 C14,7.40919922 12.2091992,9.2 10,9.2 C7.79080078,9.2 6,7.40919922 6,5.2 C6,2.99080078 7.79080078,1.2 10,1.2 Z M10,2.4 C8.4536027,2.4 7.2,3.6536027 7.2,5.2 C7.2,6.7463973 8.4536027,8 10,8 C11.5463973,8 12.8,6.7463973 12.8,5.2 C12.8,3.6536027 11.5463973,2.4 10,2.4 Z" id="icon-我的_n_形状" fill="#BABDFF" />rn                </g>rn            </g>rn        </g>rn    </g>rn</svg>