<svg xmlns="http://www.w3.org/2000/svg" xmlns:xlink="http://www.w3.org/1999/xlink">rn    <title>icon/代理_n</title>rn    <g id="icon-代理_n_✅终稿" stroke="none" stroke-width="1" fill="none" fill-rule="evenodd">rn        <g id="icon-代理_n_1-0-首页" transform="translate(-253.000000, -2077.000000)" fill-rule="nonzero">rn            <g id="icon-代理_n_底部" transform="translate(0.000000, 2037.714653)">rn                <g id="icon-代理_n_icon/代理_n" transform="translate(253.000000, 39.285347)">rn                    <rect id="icon-代理_n_矩形" fill="#000000" opacity="0" x="0" y="0" width="20" height="20" />rn                    <path d="M17.3496094,13.5390625 C16.5195312,13.0585937 15.5078125,13.1875 14.8261719,13.7890625 L13.7910156,13.1894531 L13.7910156,10.2265625 C13.7910156,9.91992188 13.6269531,9.63476562 13.3613281,9.48242188 L10.7050781,7.953125 L10.7050781,6.64257812 C11.5683594,6.34960938 12.1894531,5.53320312 12.1894531,4.5703125 C12.1894531,3.36132812 11.2109375,2.3828125 10.0019531,2.3828125 C8.79296875,2.3828125 7.81445312,3.36132812 7.81445312,4.5703125 C7.81445312,5.53320312 8.43554687,6.34960938 9.29882812,6.64257812 L9.29882812,7.953125 L6.64257812,9.48242188 C6.37695312,9.63476562 6.21289062,9.91992188 6.21289062,10.2265625 L6.21289062,13.1875 L5.17773437,13.7871094 C4.49609375,13.1855469 3.48242187,13.0566406 2.65429687,13.5371094 C1.609375,14.1425781 1.25390625,15.4785156 1.85351562,16.5234375 C2.45507812,17.5683594 3.78515625,17.9277344 4.82617187,17.3242188 C5.65625,16.84375 6.05078125,15.8984375 5.87304687,15.0039063 L6.82421875,14.4511719 L9.5703125,16.0332031 C9.703125,16.109375 9.8515625,16.1484375 10,16.1484375 C10.1484375,16.1484375 10.296875,16.109375 10.4296875,16.0332031 L13.1738281,14.453125 L14.125,15.0058594 C13.9472656,15.8984375 14.34375,16.8457031 15.171875,17.3261719 C16.2128906,17.9296875 17.5449219,17.5722656 18.1445312,16.5253906 C18.7460937,15.4785156 18.390625,14.1425781 17.3496094,13.5390625 Z M4.20507813,16.2421875 C3.75976563,16.5 3.1875,16.3476562 2.93164063,15.8984375 C2.67382813,15.4511719 2.82617188,14.8769531 3.2734375,14.6191406 C3.71875,14.3613281 4.29101563,14.5136719 4.546875,14.9628906 C4.8046875,15.4101562 4.65234375,15.984375 4.20507813,16.2421875 Z M9.0625,4.5703125 C9.0625,4.05273438 9.48242188,3.6328125 10,3.6328125 C10.5175781,3.6328125 10.9375,4.05273438 10.9375,4.5703125 C10.9375,5.08789062 10.5175781,5.5078125 10,5.5078125 C9.48242188,5.5078125 9.0625,5.08789062 9.0625,4.5703125 Z M12.3828125,13.2851563 L10,14.6582031 L7.6171875,13.2851563 L7.6171875,10.5429688 L10,9.16992188 L12.3828125,10.5429688 L12.3828125,13.2851562 L12.3828125,13.2851563 Z M17.0683594,15.9003906 C16.8105469,16.3476562 16.2402344,16.5019531 15.7949219,16.2441406 C15.3496094,15.9863281 15.1953125,15.4121094 15.453125,14.9648437 C15.7109375,14.5175781 16.28125,14.3632812 16.7265625,14.6210937 C17.1738281,14.8789062 17.3261719,15.4511719 17.0683594,15.9003906 Z" id="icon-代理_n_形状" fill="#BABDFF" />rn                </g>rn            </g>rn        </g>rn    </g>rn</svg>